PathFileType	4	(X/Y/Z)	D:\TRACE\v60_Jaco2_6-2-23\JustBodyDRS_Motion3_2-platform.trc
DataRate	CameraRate	NumFrames	NumMarkers	Units	OrigDataRate	OrigDataStartFrame	OrigNumFrames
100.00	100.00	      36	5	mm	100.00	4376	      7000
Frame#	Time	Left_Front			Right_Front			Left_Aft			Right_Aft			Post			
		X1	Y1	Z1	X2	Y2	Z2	X3	Y3	Z3	X4	Y4	Z4	X5	Y5	Z5	

4376	43.750	-775.34589	36.24278	-643.73645	795.39526	34.52641	-621.04877	-706.61780	-7.70630	489.35800	707.60468	-13.28378	594.90826	19.52317	1346.00732	-903.53925	
4377	43.760	-775.12109	36.35267	-643.78809	795.43890	34.75088	-621.00330	-706.56287	-7.89600	489.51291	707.73621	-13.51030	594.93433	19.74642	1346.26672	-902.94763	
4378	43.770	-774.68750	36.67088	-643.51904	795.64063	34.90507	-620.92542	-706.30243	-8.08096	489.66962	707.78394	-13.82242	595.01172	19.94616	1346.49402	-902.33380	
4379	43.780	-774.70471	37.14139	-643.69702	795.96338	35.19033	-620.79071	-706.08661	-8.16670	489.74475	708.09735	-13.93394	595.01508	20.09134	1346.67310	-901.67657	
4380	43.790	-774.56232	37.33587	-643.62097	796.18408	35.44814	-620.67529	-705.74713	-8.37309	489.68759	708.38928	-13.99515	595.07117	20.45506	1346.86279	-901.23572	
4381	43.800	-774.45087	37.50375	-643.55194	796.31781	35.57620	-620.62616	-705.73920	-8.30654	489.46945	708.65326	-14.13499	595.11865	20.69238	1347.23901	-901.07483	
4382	43.810	-774.44739	37.52721	-643.74066	796.42358	35.71650	-620.59412	-705.75946	-8.20538	489.43167	708.82825	-14.31450	595.15961	20.86873	1347.51331	-900.82153	
4383	43.820	-774.29462	37.81121	-643.76263	796.58282	35.82422	-620.49933	-705.62354	-8.40083	489.48575	708.90216	-14.49349	595.23218	21.20382	1347.70313	-900.82562	
4384	43.830	-774.08356	38.03186	-643.74872	796.68744	35.98464	-620.45203	-705.45844	-8.51888	489.54733	709.08759	-14.59816	595.32635	21.24073	1347.81726	-900.84271	
4385	43.840	-773.92383	38.02250	-643.73578	796.90552	36.04772	-620.46307	-705.23389	-8.58732	489.59851	709.25720	-14.64323	595.34277	21.41907	1347.94043	-900.85535	
4386	43.850	-773.66809	37.99853	-643.78522	797.25244	36.15070	-620.44873	-704.95990	-8.57936	489.59079	709.52264	-14.64520	595.30182	21.64004	1348.09045	-900.83118	
4387	43.860	-773.40912	38.03018	-643.75220	797.47186	36.18570	-620.41223	-704.75934	-8.63731	489.51810	709.75220	-14.74705	595.24634	21.95102	1348.21899	-900.53436	
4388	43.870	-773.15472	38.25449	-643.58868	797.62115	36.26177	-620.36847	-704.64490	-8.66953	489.47739	709.85205	-14.84737	595.24127	22.21499	1348.23401	-900.12079	
4389	43.880	-772.86700	38.36531	-643.37299	797.77551	36.31410	-620.34991	-704.46130	-8.69151	489.48590	709.94379	-14.91184	595.26520	22.33995	1348.24292	-899.93878	
4390	43.890	-772.66821	38.50162	-643.34406	797.96490	36.36136	-620.32385	-704.15662	-8.76193	489.54468	710.16095	-14.83110	595.31946	22.38069	1348.33130	-899.80469	
4391	43.900	-772.37878	38.60169	-643.18170	798.21838	36.39276	-620.34698	-703.71033	-8.89818	489.73251	710.43732	-14.79433	595.30505	22.55134	1348.42297	-899.62329	
4392	43.910	-772.19019	38.69231	-643.05389	798.57953	36.45823	-620.26117	-703.06891	-9.18701	489.69757	710.68250	-14.78546	595.37164	22.67445	1348.42139	-899.43567	
4393	43.920	-771.95660	38.60744	-643.07806	798.78937	36.35782	-620.38623	-703.02051	-9.09541	489.80447	710.96863	-14.83161	595.45740	22.70868	1348.37720	-899.32446	
4394	43.930	-771.79346	38.58065	-643.12360	799.04395	36.35326	-620.36328	-703.16748	-9.07668	489.82327	711.32916	-14.92022	595.45404	22.81487	1348.32617	-899.15790	
4395	43.940	-771.69672	38.39639	-643.28949	799.22498	36.43297	-620.36877	-703.00482	-9.11321	489.85428	711.76099	-14.97534	595.46869	23.07249	1348.38171	-899.14532	
4396	43.950	-771.09998	38.19188	-643.53705	799.41174	36.47620	-620.38043	-702.57849	-9.19238	490.01035	712.09253	-14.93773	595.61267	23.55589	1348.44519	-899.25574	
4397	43.960	-770.81305	38.20092	-643.63080	799.72278	36.54467	-620.36847	-702.23016	-9.23296	489.93979	712.28174	-14.77084	595.53455	24.11109	1348.55884	-899.43597	
4398	43.970	-770.61359	38.30095	-643.59589	800.08215	36.52517	-620.32288	-702.02148	-9.20078	489.90860	712.39545	-14.66782	595.50549	24.65950	1348.57764	-899.62701	
4399	43.980	-770.37891	38.34499	-643.69714	800.35956	36.46017	-620.34174	-701.69519	-9.14851	489.87885	712.59521	-14.58979	595.51709	24.99169	1348.52478	-899.76343	
4400	43.990	-770.26111	38.40413	-643.68829	800.53107	36.44020	-620.35999	-701.41144	-9.18461	489.91547	712.83533	-14.68973	595.44788	25.27056	1348.48523	-899.81488	
4401	44.000	-770.14276	38.37032	-643.66736	800.71692	36.40059	-620.31714	-701.09930	-9.23487	489.90515	713.07678	-14.72946	595.41199	25.44303	1348.50012	-899.98199	
4402	44.010	-769.90533	38.32537	-643.66980	800.85687	36.38680	-620.29346	-700.57562	-9.37194	489.95450	713.35114	-14.75176	595.41992	25.52299	1348.54102	-900.07220	
4403	44.020	-769.59357	38.38443	-643.48505	801.07068	36.35190	-620.32428	-700.31769	-9.27527	489.98105	713.53418	-14.71700	595.45422	25.60168	1348.61865	-900.01807	
4404	44.030	-769.25574	38.48245	-643.29126	801.38080	36.41998	-620.32562	-700.54816	-9.05342	489.97031	713.77869	-14.71096	595.47998	25.65299	1348.55127	-899.90558	
4405	44.040	-769.09430	38.56377	-643.23340	801.68073	36.46982	-620.38977	-700.18848	-9.06705	490.06760	714.06384	-14.68955	595.49365	25.85116	1348.39490	-899.89349	
4406	44.050	-768.85895	38.48387	-643.15887	802.01245	36.31884	-620.41187	-700.07855	-8.93386	489.98911	714.21704	-14.65354	595.48315	26.04105	1348.25574	-899.90424	
4407	44.060	-768.73438	38.19381	-643.56567	802.26190	36.12023	-620.44769	-699.82782	-8.87382	489.94373	714.54620	-14.63867	595.42267	26.37272	1348.23499	-899.91467	
4408	44.070	-768.35065	37.98959	-643.63446	802.53851	36.07591	-620.44525	-699.54248	-8.86122	489.80151	714.68842	-14.58005	595.44989	26.55622	1348.09595	-899.89905	
4409	44.080	-768.07178	37.94204	-643.62537	802.69275	36.12782	-620.45264	-699.25861	-8.90385	489.84726	714.81219	-14.56949	595.43909	26.91757	1347.92554	-899.94757	
4410	44.090	-767.66425	37.79638	-643.47052	802.85956	36.17144	-620.42847	-699.05658	-8.83302	489.83627	714.94690	-14.55995	595.43994	27.36452	1347.70056	-900.25610	
4411	44.100	-767.40039	37.94779	-643.51752	803.13605	36.12621	-620.40167	-698.88275	-8.74710	489.75925	715.08832	-14.21193	595.41187	27.76520	1347.72546	-900.65417	
